<svg viewBox="0 0 1920 638.6" xmlns="http://www.w3.org/2000/svg" data-name="Layer 1" id="Layer_1">
  <defs>
    <style>
      .cls-1 {
        fill: #623b2a;
      }
    </style>
  </defs>
  <path d="M178.09,181.05c-18.89,12.59-38.68,25.18-60.26,37.78-44.07,26.08-74.65,47.67-91.74,66.55C8.99,304.27,0,328.56,0,360.03c0,27.89,9.89,52.17,28.78,74.66,19.78,21.58,48.57,32.38,85.44,32.38,17.99,0,39.57-7.2,63.86-20.69v-1.8c-35.98-9.89-57.56-51.26-57.56-113.33,0-57.56,19.79-107.03,58.46-148.4l-.9-1.8Z" class="cls-1"></path>
  <path d="M637.61,178.13c-20.04-6.34-34.61-11.77-43.72-14.49-8.2-3.62-20.04-8.15-33.7-14.49-13.66-6.34-22.77-11.77-29.14-16.3-10.93-10.86-22.77-25.35-22.77-43.46,0-32.59,19.13-57.94,58.29-76.95v-1.81c-76.5,13.58-132.06,58.85-132.06,138.52,0,67.9,31.88,106.83,136.61,143.04,19.13,6.34,31.88,11.77,40.07,14.49,8.2,2.72,19.13,6.34,33.7,12.67,14.57,5.43,24.59,9.96,30.97,14.49,20.95,13.58,44.63,34.4,40.98,58.85,0,42.55-28.23,71.52-61.02,82.39v1.81c77.41-11.77,133.88-56.13,133.88-142.14s-50.09-123.13-152.09-156.62Z" class="cls-1"></path>
  <path d="M496.45,378.58c-14.57-23.68-25.5-42.81-32.79-56.47-7.29-13.66-16.39-31.88-26.41-54.64h-.91l10.93,183.97c73.77,15.48,124.77,23.68,153.92,24.59v-1.82c-40.07-17.3-75.59-49.18-104.74-95.63Z" class="cls-1"></path>
  <path d="M357.58,357.57V116.53c0-62.06-35.98-105.23-118.73-105.23-12.59,0-22.48,0-28.78.9v1.8c14.39,8.1,21.58,33.28,21.58,76.45v376.86h173.59v-1.8c-42.27-21.59-47.67-50.37-47.67-107.93Z" class="cls-1"></path>
  <path d="M90.45,68.86c30.58-24.28,56.66-41.37,79.15-52.17v-1.8c-29.68,3.6-55.76,7.2-76.45,11.69L18.49,126.42l1.8,1.8c16.19-16.19,39.57-35.98,70.15-59.36Z" class="cls-1"></path>
  <path d="M1605.21,68.86c30.58-24.28,56.66-41.37,79.15-52.17v-1.8c-29.68,3.6-55.77,7.2-76.45,11.69l-74.66,99.83,1.8,1.8c16.19-16.19,39.57-35.98,70.15-59.36Z" class="cls-1"></path>
  <path d="M1872.33,357.57V116.53c0-62.06-35.98-105.23-118.73-105.23-12.59,0-22.48,0-28.78.9v1.8c14.39,8.1,21.58,33.28,21.58,76.45v376.86h173.59v-1.8c-42.27-21.59-47.67-50.37-47.67-107.93Z" class="cls-1"></path>
  <path d="M1437.68,14.07v-1.8h-215.86v1.8c12.59,9.89,32.38,45.87,58.46,107.93l136.16,348.03,65.31-163.65-76.45-197.87c-21.58-45.87-17.09-77.35,32.38-94.44Z" class="cls-1"></path>
  <path d="M805.1,95.15c-2.63-7.09-29.46-88.69-183.91-85.83l183.11,180.72h1.58L995.32,9.32c-154.45-2.86-187.58,78.74-190.21,85.83Z" class="cls-1"></path>
  <path d="M1325.93,509.86c-35.97,0-65.66-10.68-89.04-36.76h-1.8l32.38,152.79c36.88,0,65.66-11.7,86.35-35.98,20.68-23.39,41.37-62.96,61.16-118.73h-1.8c-21.59,26.08-50.37,38.68-87.25,38.68Z" class="cls-1"></path>
  <path d="M1692.85,181.05c-18.89,12.59-38.68,25.18-60.26,37.78-44.07,26.08-74.65,47.67-91.74,66.55-17.09,18.89-26.08,43.18-26.08,74.65,0,27.89,9.89,52.17,28.78,74.66,19.78,21.58,48.57,32.38,85.44,32.38,17.99,0,39.58-7.2,63.86-20.69v-1.8c-35.98-9.89-57.56-51.26-57.56-113.33,0-57.56,19.78-107.03,58.46-148.4l-.9-1.8Z" class="cls-1"></path>
  <path d="M1003.73,186.41c-19.12,12.75-39.16,25.5-61.02,38.25-44.63,26.41-75.59,48.27-92.9,67.4-17.3,19.12-26.41,43.72-26.41,75.59,0,28.23,10.02,52.82,29.14,75.59,20.04,21.86,49.18,32.79,86.52,32.79,18.22,0,40.07-7.28,64.66-20.95v-1.82c-36.43-10.02-58.29-51.91-58.29-114.75,0-58.29,20.04-108.38,59.2-150.27l-.91-1.82Z" class="cls-1"></path>
  <path d="M1185.88,360.37V116.29c0-62.84-36.43-106.56-120.22-106.56-12.75,0-22.77,0-29.14.91v1.82c14.57,8.2,21.86,33.7,21.86,77.41v381.6h175.77v-1.82c-42.81-21.86-48.27-51-48.27-109.29Z" class="cls-1"></path>
</svg>